<svg version="1.2" xmlns="http://www.w3.org/2000/svg" viewBox="0 0 456 56" width="456" height="56"><style>.a{fill:#191919}</style><path class="a" d="m46.6 29.7v11.2h-30.3v-40.8h0.9c16.2 0 29.4 13.3 29.4 29.6z"/><path class="a" d="m0 0.1h11.6v45.4h35.5v10h-47.1z"/><path class="a" d="m67.2 10.1h7.4v29h17.5v6.3h-24.9z"/><path class="a" d="m104 10.1h-7.4v35.3h7.4z"/><path class="a" d="m136 16.3h-17.8v8.2h15.6v6.1h-15.6v14.8h-7.3v-35.3h25.1z"/><path class="a" d="m165.5 30h-17.2v9.1h19.6v6.3h-26.8v-35.3h26v6.2h-18.8v7.5h17.2z"/><path class="a" d="m195.4 44.6q-2.9 1.8-7.2 1.8-7 0-11.5-4.9-4.7-4.9-4.7-13.4c0-5.7 1.6-10.3 4.7-13.8q4.8-5.2 12.5-5.2 6.8 0 10.9 3.5 4.1 3.4 4.7 8.5h-7.3q-0.8-3.6-4.1-5.1-1.8-0.8-4.1-0.8-4.2 0-7 3.3-2.7 3.2-2.7 9.7c0 4.3 0.9 7.4 2.9 9.2q3 2.7 6.8 2.7c2.5 0 4.5-0.7 6.1-2.1q2.4-2.2 2.9-5.6h-8.2v-5.9h14.8v18.9h-4.9l-0.8-4.4q-2.1 2.6-3.8 3.6"/><path class="a" d="m219.6 38.2l-2.4 7.2h-7.7l12.6-35.4h8.3l12.6 35.4h-8l-2.3-7.2zm10.9-6.1l-4.4-14-4.5 14z"/><path class="a" d="m269.5 10.1v6.2h-10.5v29.1h-7.5v-29.1h-10.6v-6.2z"/><path class="a" d="m298.5 30h-17.2v9.1h19.6v6.3h-26.8v-35.3h25.9v6.2h-18.7v7.5h17.2z"/><path class="a" d="m310 45.4v-0.3c3.3 0 3.9-2 4.7-5.6l5.1-23.9c0.8-3.7 0.9-5.7-2.3-5.7v-0.3h13.7c9.6 0 14.8 5.3 14.8 13.7 0 12.1-8.6 22.1-21.7 22.1h-14.4zm31.5-22.9c0-7.9-3.8-12.1-10.5-12.1h-3.8c-1.1 0-2 0.6-2.3 1.8l-6.2 29.3c-0.4 1.9 0.3 3.1 5.3 3.1 11.8 0 17.5-11.5 17.5-22.1z"/><path class="a" d="m351.3 32.9c-0.3 1.3-0.5 2.8-0.5 4.1 0 4.6 1.6 6.6 4.4 6.6 3 0 6.2-2.3 9.1-5.7l0.3 0.2c-3.6 5.5-7.4 8-11.2 8-3.9 0-6.8-2.6-6.8-8.1 0-7.9 5.6-18.9 15.3-18.9 3.7 0 5.4 1.5 5.4 3.8 0 4.4-6.3 7-16 10zm0.1-0.8c8.1-2.9 12.2-5.3 12.2-9.4 0-1.6-0.6-2.9-2.5-2.9-3.8 0-8.1 5.7-9.7 12.3z"/><path class="a" d="m392.4 38.5c-2.4 4.7-5.2 7.5-7.5 7.5-2.3 0-2.5-2.2-1.8-5.2l2.9-12.7c0.7-3.2 1.3-6.1-1.1-6.1-4.2 0-10.7 10.9-13.4 23.4h-3.9l4.4-20.7c0.2-1.1 0.5-2.5-0.3-2.5-0.7 0-2 1.3-3.8 3.6l-0.2-0.2c2.1-4.2 4.7-6.5 6.7-6.5 2.2 0 2.2 2.3 1.6 5.2l-2.5 11.7c3.6-9.8 8.8-16.9 13.8-16.9 4.1 0 3.8 4.3 2.7 9.4l-2.8 11.9c-0.2 1.2-0.6 2.5 0.2 2.5 0.7 0 2.4-1.3 4.8-4.6z"/><path class="a" d="m395.6 36.6l2.5-11.9c0.2-1 0.6-2.5-0.2-2.5-0.8 0-2.1 1.4-3.9 3.7l-0.3-0.2c2.3-4.4 4.8-6.6 6.9-6.6 2.5 0 2.1 3.2 1.6 5.2l-2.7 12.7c-0.8 3.6-0.5 6.4 2.1 6.4 5.3 0 9.9-10.6 9.9-17.2 0-2.5-0.7-5.1-2.2-6.2v-0.3l3.5-0.6c1.4 1.1 2 2.8 2 4.8 0 7.7-9 22.1-15.9 22.1-4 0-4.5-4.2-3.3-9.4z"/><path class="a" d="m420 32.9c-0.3 1.3-0.5 2.8-0.5 4.1 0 4.6 1.7 6.6 4.4 6.6 3 0 6.3-2.3 9.1-5.7l0.3 0.2c-3.6 5.5-7.4 8-11.2 8-3.8 0-6.7-2.6-6.7-8.1 0-7.9 5.5-18.9 15.3-18.9 3.7 0 5.3 1.5 5.3 3.8 0 4.4-6.2 7-16 10zm0.2-0.8c8.1-2.9 12.1-5.3 12.1-9.4 0-1.6-0.6-2.9-2.4-2.9-3.9 0-8.1 5.7-9.7 12.3z"/><path class="a" d="m455.4 19.5l-1.9 4.2h-0.3c-0.6-0.3-1.1-0.4-1.6-0.4-5.1 0-9 11.1-11.3 22.1h-4l4.4-20.7c0.2-1.2 0.5-2.5-0.3-2.5-0.7 0-2 1.3-3.7 3.6l-0.3-0.2c2.2-4.2 4.7-6.5 6.7-6.5 2.3 0 2.3 2.3 1.7 5.2l-2.1 9.5c2.6-8.1 6.3-14.7 10.6-14.7 0.7 0 1.4 0 2.1 0.4z"/></svg>